<?xml version="1.0" encoding="utf-8"?>
<!-- Generator: Adobe Illustrator 19.0.0, SVG Export Plug-In . SVG Version: 6.00 Build 0)  -->
<svg version="1.1" id="Layer_1" xmlns="http://www.w3.org/2000/svg" xmlns:xlink="http://www.w3.org/1999/xlink" x="0px" y="0px"
	 viewBox="0 0 806.6 274.5" style="enable-background:new 0 0 806.6 274.5;" xml:space="preserve">
<style type="text/css">
	.st0{fill:#FFFFFF;}
	.st1{font-family:'ProximaNova-Light';}
	.st2{font-size:41.4302px;}
	.st3{fill:#0C0709;}
	.st4{fill:#3E9AC0;}
	.st5{fill:#43AD49;}
	.st6{fill:#75BDE9;}
</style>
<text transform="matrix(1 0 0 1 245.257 225.2657)" class="st0 st1 st2">®</text>
<path class="st0" d="M354.1,119.4c0.1-5.1-0.2-10.2-2.6-13c-2.4-2.9-7.7-3.8-10.1-3.8c-9.4,0-13.2,5.7-13.5,6.9
	c-0.4,1-2.6,3.2-2.6,18.6v24c0,22,7.2,24.6,16,24.6c3.5,0,14-1.2,14.2-18.8h11.8c0.5,28.3-19.5,28.3-25.3,28.3
	c-11.2,0-28.3-0.7-28.3-35.5v-25.3c0-25.3,11.2-32.5,28.8-32.5c17.8,0,24.6,9.2,23.5,26.6H354.1"/>
<path class="st0" d="M377.2,153.9c0-18.4,2.1-33.5,23.8-33.5c21.7,0,23.8,15.2,23.8,33.5c0,27.7-10.6,31.7-23.8,31.7
	C387.8,185.6,377.2,181.6,377.2,153.9 M414.2,149.6c0-17.1-5.3-20.9-13.2-20.9c-7.8,0-13.2,3.7-13.2,20.9c0,20.4,2.6,27.7,13.2,27.7
	C411.6,177.3,414.2,169.9,414.2,149.6z"/>
<path class="st0" d="M470.6,121.6h10.2v69.1c0,14-9.3,17.4-23.1,17.4c-10.4,0-19.9-5.2-19-16.8h11.4c0.1,5.8,4,9.1,9.6,9.1
	c7.1,0,10.9-4.3,10.9-10.8v-13h-0.4c-2.6,5-8.3,7.8-13.8,7.8c-17,0-20.4-14.7-20.4-33.3c0-28.8,14.5-30.7,19.6-30.7
	c6.6,0,11.8,2.9,14.7,8.9h0.2V121.6 M458.7,128.8c-11.6,0-11.9,13.9-11.9,22.2c0,20.1,4.6,24.8,12.2,24.8
	c12.3,0,11.9-14.5,11.9-23.2C470.8,143.4,471.5,128.8,458.7,128.8z"/>
<path class="st0" d="M531.3,184.4v-43.5c0-6.7-2.4-12.2-11.1-12.2c-11.2,0-12.8,9.9-12.8,18.5v37.1h-10.2v-49.7
	c0-4.4-0.3-8.7-0.6-13h10.8v8.1h0.5c4-7.1,8.7-9.3,16.8-9.3c13.4,0,16.8,8.1,16.8,20.5v43.5H531.3"/>
<path class="st0" d="M559.5,94.7h11.4v10.9h-11.4V94.7z M570.3,184.4h-10.2v-62.7h10.2V184.4z"/>
<polyline class="st0" points="624.6,131 596.9,176 625.5,176 625.5,184.4 585.8,184.4 585.8,174.8 613.2,130.2 613.2,130 587.2,130 
	587.2,121.6 624.6,121.6 624.6,131 "/>
<path class="st0" d="M669.7,175.3h-0.3c-3.1,7.2-7.9,10.3-15.8,10.3c-13.3,0-17.1-8.6-17.1-20.6c0-19,18.6-19.9,32.9-19.5
	c0.3-8.3,0.4-17.4-10.5-17.4c-6.8,0-10.4,4.6-9.8,11.2H638c0.5-14,8-18.9,21.2-18.9c16.2,0,20.4,8.3,20.4,18.9v30.2
	c0,5,0.5,10.1,1.2,14.9h-11.2V175.3 M646.7,165.7c0,6.1,3,11.5,9.8,11.5c6.2,0,13.9-3.9,12.9-24.1
	C659.7,153.3,646.7,152.4,646.7,165.7z"/>
<path class="st0" d="M730.1,184.4v-43.5c0-6.7-2.4-12.2-11-12.2c-11.2,0-12.8,9.9-12.8,18.5v37.1h-10.2v-49.7c0-4.4-0.2-8.7-0.6-13
	h10.8v8.1h0.5c4-7.1,8.7-9.3,16.8-9.3c13.4,0,16.8,8.1,16.8,20.5v43.5H730.1"/>
<path class="st0" d="M760.4,121.6v-12l10.2-4.6v16.6h13.7v7.7h-13.7v38.4c0,4,0,9.1,9.3,9.1c0.7,0,2.4-0.2,4.6-0.5v7.8
	c-3.4,0.3-6.7,1-10.1,1c-9.7,0-14-4-14-11.2v-44.6h-10.3v-7.7H760.4"/>
<path class="st3" d="M137.8,23.6C74.1,23.6,22.4,75.3,22.4,139s51.7,115.4,115.4,115.4c63.7,0,115.4-51.7,115.4-115.4
	S201.6,23.6,137.8,23.6"/>
<path class="st4" d="M146.8,205.1c0,5.5-2.3,11.7-9,11.7c-6.7,0-8.6-6.3-8.6-11.7v-16.6c-17.2-7.9-34.2-18.5-49.7-31.7v46.4
	c0,33.6,26.6,50.5,58.3,50.5c30.7,0,57.6-16.2,58.6-48.6c-15.6-0.3-32.6-3.5-49.7-9.4V205.1"/>
<path class="st4" d="M178.1,164.5h-31.3v0c7.4,4,14.7,6.1,21.3,6.1C175.4,170.7,178.2,168.3,178.1,164.5"/>
<path class="st4" d="M106.9,103.4c-20.4,0-5.7,19.9,8.2,35.2c4.6,5.1,9.4,9.7,14.2,13.8v-41.9c-1.2-0.7-2.3-1.3-3.5-1.9
	C119.2,105.1,112.9,103.4,106.9,103.4"/>
<path class="st4" d="M129.2,72.9c0-5.5,2-11.7,8.6-11.7c6.7,0,9,6.3,9,11.7v12.6c9.9,4.7,19.8,10.4,29.4,17.3h20.3V74.9
	c0-33.6-27.4-50.5-58.7-50.5c-29.8,0-55.1,14.9-58,44.6c15.2,0.4,32.1,3.4,49.4,9.3V72.9"/>
<path class="st5" d="M226.7,151.4l-54.9,0.1c3.7,4.9,6.2,9.5,6.3,13h18.4v38.7c0,0.6,0,1.3,0,1.9c1,0,1.9,0,2.9,0
	c19.1,0,33.5-3.7,39.5-12.1C244.9,184.4,242,170.8,226.7,151.4"/>
<path class="st5" d="M79.8,69C78.4,69,77,69,75.6,69c-45.3,0.1-55,25.6-15.1,69.4c6,6.6,12.4,12.8,19,18.4V74.9
	C79.6,72.9,79.7,70.9,79.8,69"/>
<path class="st5" d="M146.8,85.5c-5.9-2.7-11.8-5.1-17.6-7.1v32.1c5,3,9.9,6.7,14.3,11.3l55.1-0.1c-7.2-7.1-14.7-13.4-22.4-18.9
	h-29.4V85.5"/>
<path class="st5" d="M146.8,195.6v-31.1c-5.8-3.1-11.7-7.2-17.6-12.2v36.2C135.1,191.2,141,193.6,146.8,195.6"/>
<path class="st6" d="M129.2,152.3c-4.8-4.1-9.5-8.7-14.2-13.8c-13.8-15.2-28.5-35.1-8.2-35.2c6,0,12.3,1.7,18.8,5.1
	c1.2,0.6,2.4,1.2,3.5,1.9V78.4C112,72.4,95,69.5,79.8,69c-0.2,1.9-0.3,3.8-0.3,5.9v81.9c15.5,13.2,32.5,23.8,49.7,31.7V152.3"/>
<path class="st6" d="M146.8,102.8h29.4c-9.6-6.9-19.5-12.6-29.4-17.3V102.8"/>
<path class="st6" d="M196.5,164.5h-18.4c0,3.7-2.7,6.1-10,6.2c-6.6,0-13.8-2.2-21.3-6.1v31.1c17.1,5.9,34,9.1,49.7,9.4
	c0-0.6,0-1.2,0-1.9V164.5"/>
</svg>
